<mxfile host="localhost" modified="2020-05-12T13:26:13.455Z" agent="5.0 (X11; Linux x86_64) AppleWebKit/537.36 (KHTML, like Gecko) Code/1.45.0 Chrome/78.0.3904.130 Electron/7.2.4 Safari/537.36" etag="DJkpyZU5kHEZ9Kd9EZTs" version="13.0.9">
    <diagram id="mJBCz1etY_Zmhcm4Mlke" name="Page-1">
        <mxGraphModel dx="7040" dy="5573" grid="1" gridSize="10" guides="1" tooltips="1" connect="1" arrows="1" fold="1" page="1" pageScale="1" pageWidth="827" pageHeight="1169" math="0" shadow="0">
            <root>
                <mxCell id="0"/>
                <mxCell id="1" parent="0"/>
            </root>
        </mxGraphModel>
    </diagram>
</mxfile>